<svg xmlns="http://www.w3.org/2000/svg" viewBox="0 0 500 500"><g id="freepik--background-complete--inject-30"><path d="M414.79,382.89l13.36-.28,6.58-.11c2.19-.05,4.36,0,6.54-.06l-.44.45-.06-11.19.5.5L428,372.14c-4.41,0-8.82-.12-13.24-.17l.28-.27c0,1.83-.09,3.67-.14,5.54Zm0,0-.14-5.54c0-1.86-.11-3.75-.13-5.65v-.27h.27c4.42-.05,8.83-.16,13.24-.17l13.24-.06h.5v.5l0,11.19v.45h-.45c-2.23,0-4.47,0-6.69-.06l-6.66-.11Z" style="fill:#ebebeb"></path><path d="M429.56,397l13.36-.28,6.58-.11c2.19-.05,4.36,0,6.54-.06l-.44.45-.05-11.19.49.5-13.24-.06c-4.41,0-8.82-.12-13.24-.17l.28-.27c0,1.83-.09,3.67-.13,5.54Zm0,0-.14-5.54c0-1.86-.11-3.75-.13-5.65v-.27h.27c4.42-.05,8.83-.16,13.24-.17l13.24-.06h.51v.5L456.49,397v.45H456c-2.23,0-4.46,0-6.69-.06l-6.66-.11Z" style="fill:#ebebeb"></path><rect x="400.02" y="385.81" width="26.48" height="11.19" transform="translate(826.52 782.81) rotate(180)" style="fill:#ebebeb"></rect><path d="M312.24,128.35l13.35-.28,6.58-.11c2.19,0,4.37,0,6.55-.06l-.45.45,0-11.19.5.5-13.24-.07c-4.42,0-8.83-.11-13.24-.16l.27-.27c0,1.83-.09,3.67-.13,5.53Zm0,0-.15-5.54c0-1.87-.11-3.76-.13-5.65v-.27h.28c4.41,0,8.82-.16,13.24-.16l13.24-.06h.5v.51l-.06,11.19v.45h-.44c-2.23,0-4.47,0-6.7,0l-6.66-.12Z" style="fill:#ebebeb"></path><path d="M327,142.46l13.35-.28,6.58-.11c2.19,0,4.37,0,6.55-.06l-.45.45L353,131.27l.5.5-13.24-.07c-4.41,0-8.83-.11-13.24-.16l.27-.27c0,1.83-.08,3.67-.13,5.53Zm0,0-.14-5.54c-.05-1.87-.12-3.76-.13-5.65V131H327c4.41-.05,8.83-.16,13.24-.16l13.24-.06h.5v.51l-.06,11.19v.44h-.44c-2.23,0-4.47,0-6.7-.05l-6.66-.12Z" style="fill:#ebebeb"></path><rect x="297.46" y="131.27" width="26.48" height="11.19" transform="translate(621.41 273.72) rotate(180)" style="fill:#ebebeb"></rect><rect x="58.73" y="385.81" width="26.48" height="11.19" transform="translate(143.93 782.81) rotate(180)" style="fill:#ebebeb"></rect><rect x="58.73" y="44.58" width="26.48" height="11.19" transform="translate(143.93 100.34) rotate(180)" style="fill:#ebebeb"></rect><path d="M44,69.88l13.35-.28,6.58-.12c2.19,0,4.36,0,6.55,0l-.45.45,0-11.19.5.49L57.2,59.12C52.78,59.12,48.37,59,44,59l.27-.27c0,1.83-.09,3.67-.13,5.53Zm0,0-.15-5.54c0-1.87-.11-3.76-.13-5.65v-.27H44c4.41,0,8.82-.16,13.24-.16l13.24-.06h.5v.51l-.06,11.19v.44h-.44c-2.24,0-4.47,0-6.7,0l-6.66-.12Z" style="fill:#ebebeb"></path><path d="M429.56,55.78l13.36-.28,6.58-.11c2.19,0,4.36,0,6.54-.06l-.44.45-.05-11.19.49.5L442.8,45c-4.41,0-8.82-.11-13.24-.16l.28-.27c0,1.83-.09,3.67-.13,5.53Zm0,0-.14-5.54c0-1.87-.11-3.75-.13-5.65v-.27h.27c4.42-.05,8.83-.15,13.24-.16L456,44.09h.51v.5l-.05,11.19v.45H456c-2.23,0-4.46,0-6.69,0l-6.66-.11Z" style="fill:#ebebeb"></path><rect x="255.8" y="344.42" width="26.48" height="11.19" style="fill:#ebebeb"></rect><path d="M267.51,330.31l-13.36.28-6.57.11c-2.19.05-4.37,0-6.55.06l.45-.45.05,11.19-.5-.5,13.24.07c4.41,0,8.83.11,13.24.16l-.27.27c0-1.83.08-3.67.13-5.53Zm0,0,.14,5.54c.05,1.87.11,3.75.13,5.65v.27h-.28c-4.41.05-8.83.15-13.24.16L241,342h-.5v-.5l.05-11.19v-.45H241c2.23,0,4.47,0,6.69.05l6.67.11Z" style="fill:#ebebeb"></path><path d="M89.3,49.3V322.47H410.71V49.3ZM403.7,315.46H96.31V56.31H403.7Z" style="fill:#dbdbdb"></path><rect x="96.31" y="56.31" width="307.39" height="259.14" style="fill:#fff"></rect><rect x="96.3" y="182.38" width="307.4" height="7.01" transform="translate(500 371.76) rotate(180)" style="fill:#c7c7c7"></rect><path d="M110.67,100c5.25,0,93.57.58,99.12.4.4,0,.62-.6.22-.79-3.5-1.74-7.47-1.39-11.1-2.62-2.14-.72-3.46-2.12-4.94-3.72a10.2,10.2,0,0,0-4.6-3,9.75,9.75,0,0,0-5-.16c-1.8.43-3.35,1.46-5.06,2.1-4.24,1.6-8.37.08-11.4-3.06-2.5-2.58-4.95-5-8.35-6.42a11.08,11.08,0,0,0-8.85-.12c-3.24,1.46-5.46,4.42-8.5,6.19-3.61,2.11-7.93,1.61-11.91,2.25s-7,4-10.54,5.92A7.39,7.39,0,0,1,116,98.11a23.13,23.13,0,0,1-2.32-.33c-1.2-.14-2.34-.11-3.15.89C110.28,98.92,110.32,100,110.67,100Z" style="fill:#ebebeb"></path><path d="M274.32,281c5.25,0,93.58.59,99.13.41.4,0,.61-.6.22-.8-3.5-1.73-7.47-1.38-11.11-2.61-2.14-.72-3.45-2.12-4.94-3.72a10.22,10.22,0,0,0-4.59-3,9.68,9.68,0,0,0-5-.16c-1.79.43-3.35,1.46-5.06,2.1-4.24,1.6-8.36.08-11.39-3.06-2.5-2.59-5-5-8.35-6.42a11.08,11.08,0,0,0-8.85-.12c-3.24,1.46-5.47,4.42-8.51,6.19-3.61,2.11-7.92,1.61-11.91,2.25s-7,4-10.53,5.92a7.45,7.45,0,0,1-3.81,1.18,22.72,22.72,0,0,1-2.32-.33c-1.21-.14-2.35-.11-3.16.89C273.94,280,274,281,274.32,281Z" style="fill:#ebebeb"></path><path d="M119.21,250.73c5.24,0,93.57.58,99.12.4.4,0,.62-.59.22-.79-3.5-1.73-7.47-1.39-11.1-2.61-2.14-.72-3.46-2.12-4.94-3.73a10.34,10.34,0,0,0-4.6-3,9.75,9.75,0,0,0-5-.15c-1.8.42-3.35,1.45-5.06,2.1-4.25,1.6-8.37.08-11.4-3.06-2.5-2.59-4.95-5-8.35-6.43a11.12,11.12,0,0,0-8.85-.12c-3.24,1.47-5.46,4.42-8.5,6.2-3.61,2.1-7.93,1.61-11.91,2.24s-7,4-10.54,5.93a7.49,7.49,0,0,1-3.81,1.18,22.72,22.72,0,0,1-2.32-.33c-1.2-.15-2.34-.12-3.15.89C118.82,249.69,118.86,250.73,119.21,250.73Z" style="fill:#ebebeb"></path><path d="M176.32,162.49c5.25,0,93.58.58,99.13.4a.43.43,0,0,0,.22-.79c-3.5-1.73-7.47-1.39-11.11-2.61-2.14-.72-3.45-2.12-4.94-3.73a10.31,10.31,0,0,0-4.59-3,9.78,9.78,0,0,0-5-.15c-1.79.42-3.34,1.45-5.05,2.1-4.25,1.6-8.37.08-11.4-3.06-2.5-2.59-5-5-8.35-6.43a11.12,11.12,0,0,0-8.85-.12c-3.24,1.47-5.46,4.42-8.51,6.2-3.6,2.1-7.92,1.61-11.9,2.24s-7.05,4-10.54,5.93a7.52,7.52,0,0,1-3.81,1.18c-.78,0-1.55-.24-2.32-.33-1.2-.15-2.35-.12-3.15.89C175.94,161.45,176,162.49,176.32,162.49Z" style="fill:#ebebeb"></path><path d="M251.28,139c.11.3,139.22,0,137.47,0-.81,0,1.21-1.2.43-1.58-4.53-2.25-9.49-2.31-14.42-2.77a22.26,22.26,0,0,1-8.42-2c-2.62-1.37-4.26-3.76-6.12-6a26.16,26.16,0,0,0-23.75-9c-9.89,1.55-17.69,9.09-27.6,10.47-5.95.84-11.58-1.47-17.4-2.28a21.32,21.32,0,0,0-13.06,2.39c-3.14,1.55-6,2.87-9.59,3.11-2.72.19-5.46-.12-8.19-.15a18.33,18.33,0,0,0-12,4.82C248.14,136.42,246.74,139,251.28,139Z" style="fill:#ebebeb"></path><rect x="64.63" y="322.46" width="370.74" height="20.11" transform="translate(500 665.04) rotate(180)" style="fill:#c7c7c7"></rect><path d="M96.3,56.31H403.7V315.46H96.3ZM397.21,62.8H102.79V309H397.21Z" style="fill:#c7c7c7"></path><rect x="300.22" y="56.31" width="3.5" height="252.66" style="fill:#c7c7c7"></rect><rect x="196.27" y="56.31" width="3.5" height="252.66" style="fill:#c7c7c7"></rect></g><g id="freepik--Hearts--inject-30"><path d="M276.5,81.7c-6.48,4.4-15.74,4-15.74,4S255.6,78,256,70.15c.36-6.52,5.06-11.13,9.73-10.09,6.68,1.5,2.54,12.27,2.54,12.27s7.07-9.12,11.82-4.17C283.41,71.61,281.9,78,276.5,81.7Z" style="fill:#1870C2"></path><path d="M257.35,40.44c-1.81,4.86-7,8.18-7,8.18s-5.74-2.17-8.51-6.54c-2.32-3.66-1.55-7.95,1.36-9.17,4.18-1.76,6.08,5.63,6.08,5.63s.32-7.63,4.77-6.78C257.2,32.35,258.85,36.39,257.35,40.44Z" style="fill:#1870C2"></path><path d="M356.76,208.29C325.1,272.13,249.81,310,249.81,310s-75.3-37.88-106.89-101.72c-26.36-53.24-9.66-110.79,31.94-123.35,59.64-18,74.95,50.36,74.95,50.36s15.3-68.4,75-50.36C366.42,97.51,383.12,155.05,356.76,208.29Z" style="fill:#1870C2"></path><path d="M356.76,208.29C325.1,272.13,249.81,310,249.81,310s-75.3-37.88-106.89-101.72c-26.36-53.24-9.66-110.79,31.94-123.35,59.64-18,74.95,50.36,74.95,50.36s15.3-68.4,75-50.36C366.42,97.51,383.12,155.05,356.76,208.29Z" style="fill:#fff;opacity:0.5"></path><path d="M132.78,155.52c-1.05,5.07-5.65,9.13-5.65,9.13s-6-1.28-9.4-5.19c-2.84-3.27-2.72-7.62,0-9.27,3.86-2.37,6.85,4.66,6.85,4.66s-.83-7.6,3.7-7.43C131.42,147.54,133.65,151.29,132.78,155.52Z" style="fill:#1870C2"></path><path d="M373.68,126.28c-7.61,7.44-20.09,9.07-20.09,9.07s-8.76-9-10.07-19.61c-1.09-8.81,4.1-16.1,10.59-15.82,9.3.39,6.34,15.79,6.34,15.79s7.28-13.89,14.81-8.4C380.5,111.13,380,120.07,373.68,126.28Z" style="fill:#1870C2"></path></g><g id="freepik--Plant--inject-30"><path d="M87.58,347a90.67,90.67,0,0,1,2.14-15c1.06-4.46,2.56-9,5.37-12.69,2.57-3.36,6.25-6,10.53-6.56,4.13-.51,8,1.33,11.09,3.93,3.82,3.22,6.75,7.48,9.5,11.61a142.69,142.69,0,0,1,8.2,14.37c.09.16-.16.3-.24.13a89.9,89.9,0,0,0-7.34-12,76.12,76.12,0,0,0-8.45-10.24c-2.83-2.76-6.43-5.34-10.54-5.48s-7.85,2.17-10.3,5.31c-2.75,3.52-4.15,7.91-5.2,12.19a91,91,0,0,0-2.11,14.33c-.81,9.9-1,19.87-1.25,29.8-.13,5.63-.2,11.25-.26,16.87q0,4.27-.07,8.55a52.64,52.64,0,0,1-.32,8.24c-.1.55-1,.5-1.1,0a48.31,48.31,0,0,1-.37-7.8c0-2.7-.08-5.4-.1-8.11q-.08-7.87-.06-15.75C86.73,368.12,86.86,357.54,87.58,347Z" style="fill:#263238"></path><path d="M101.74,339.56c.52-2.81,1.47-6.46,3.06-8.63,2.87-3.9,6-2.2,3.11,2.12a25.74,25.74,0,0,0-4,10.65s4.82,6.89,10.64,10.28c-.25-2.65-1-6.72-.48-10.65,1.12-8.51,6.27-8,5-1.28-1,5.43-1.44,11.18-1.16,13.67a28.62,28.62,0,0,0,6.22,3c-.34-1-.69-2.17-1.08-3.6-2.07-7.63,3-10,3.18-5.72a59.44,59.44,0,0,0,2,10.82c2.79.94,5.1,1.58,6.52,2.08a23.74,23.74,0,0,1,9.54,6.52,29.88,29.88,0,0,0,6.5-8.42c-1.78-1.53-4.59-3.8-8.49-6.55-7.31-5.17-4.77-11.69,1-7.63,4.19,2.92,7.43,8.34,8.91,11.12a45.38,45.38,0,0,0,3.31-15.22c-5.74-5.4-20-12.91-15.67-12.91,3.86,0,12.48,5.65,15.64,7.83a39.24,39.24,0,0,0-.48-4.43c-5.41-3.54-23-9.06-20.19-10.65,3.07-1.74,15.34,3.94,19.05,5.74a22.2,22.2,0,0,0-3.25-6.73c-7.48-10-21-13.46-26.84-11.55-4.16,1.35-3,11.91-3.84,11.55C103.19,314.29,95.59,319.05,101.74,339.56Zm41-1.16c1.19-1.44,6.67,2.78,5.09,5.08S141.19,340.23,142.72,338.4Zm-28.67-9c1.44.92-.69,6.26-2.92,4.64C109.24,332.65,112.6,328.47,114.05,329.39Z" style="fill:#1870C2"></path><path d="M116.24,331c.75-1.49,1.54-3,2.4-4.41a25.71,25.71,0,0,1,2.76-4l-.71-.88c-.1-.12.07-.28.17-.16.28.32.55.64.82,1a.22.22,0,0,1,.12.13c1,1.24,2,2.52,2.93,3.82a42.89,42.89,0,0,1,4.86,1.41c1.64.54,3.27,1.11,4.86,1.79.17.07.08.34-.08.27-1.58-.7-3.18-1.38-4.82-1.93s-3.12-.92-4.69-1.37c.51.72,1,1.45,1.49,2.19a56.67,56.67,0,0,1,8.59,3.5c2.9,1.38,5.69,3,8.47,4.59.16.09,0,.33-.15.24a94.68,94.68,0,0,0-8.43-4.37c-2.69-1.25-5.47-2.29-8.18-3.49,6.83,10.66,10.92,22.95,16.4,34.34.07.16-.18.3-.25.13-1.67-4-3.6-7.88-5.42-11.81-1.63-3.52-3.23-7.07-4.86-10.59-.48-1-1-2.06-1.48-3.09.3,5.69.18,11.48,1.11,17.1a.14.14,0,1,1-.27,0c-.4-6.09-1.47-12.07-1.43-18.19,0,0,0-.05,0-.08-1.16-2.32-2.4-4.62-3.73-6.85-2.26,5.33-4.64,10.73-5.7,16.45,0,.18-.31.1-.27-.08,1.54-5.73,3-11.47,5.73-16.77a64.84,64.84,0,0,0-4.81-6.93c-.76,1.41-1.73,2.75-2.59,4.11s-1.67,2.65-2.45,4a57.18,57.18,0,0,0-4.27,9c-.07.18-.35.09-.27-.08C113.43,337,114.75,334,116.24,331Z" style="fill:#263238"></path><path d="M62.42,344c4.38-4.39,9.47-10.16,16.24-10.15,6.54,0,11.35,5.28,14.11,10.7,2.89,5.68,3.93,12.11,4.75,18.36,1,7.49,1.51,15,1.73,22.57.12,4.19.1,8.39,0,12.58a84.12,84.12,0,0,1-1,12.69c-.13.68-1.21.7-1.25,0-.2-3.53-.06-7.07,0-10.61s0-6.95-.16-10.43c-.26-7-.77-14.05-1.6-21-.72-6.1-1.29-12.38-3.12-18.28C90.48,345,87.39,338.94,82,336.61c-7.36-3.19-14.55,2.63-19.36,7.55C62.51,344.29,62.29,344.11,62.42,344Z" style="fill:#263238"></path><path d="M40.07,353.8h0c0,.9.08,1.79.14,2.65a16,16,0,0,1,7.18-3c6.22-.66,5.82,4.07,1.67,4.27a23.64,23.64,0,0,0-8.53,1.7c1,8.22,3.27,14.82,3.61,14.91a120.4,120.4,0,0,0,16.43-2.08c-1.55-3.3-5.07-7.67-3.27-8s3.75,3.55,4.75,7.73a78.92,78.92,0,0,0,12-3.29c-2.74-2.37-7-5.31-5.35-6.57s5,2.89,7,5.91a24.14,24.14,0,0,0,5.17-2.88c-3.69-5.41-12.67-6.52-11.5-10.43s9.58,1.52,13.35,8.76c4.43-4.59,5.73-11.1,5.26-16.65-3.86-.45-11.28.36-10.74-2.41s5.9-2.24,10.29-.63a15.38,15.38,0,0,0-2.58-6.1c-4.06-5.23-16.48,1.42-16.48,1.42s1.33-12.48-3.4-14.64c-2.73-1.24-7.55-1.23-12.38,1.62,2.71.22,6,1.08,7.3,3,1.69,2.4-1,3.7-2.66,2.6-1.19-.79-3.41-3.26-7.42-3.58a24.87,24.87,0,0,0-4.48,5c-.46.64-.88,1.32-1.31,2.06a17.09,17.09,0,0,1,14.54.26C64,338,61,343.62,56.33,341.45s-9-4.3-13.95-3.07A34.74,34.74,0,0,0,40,352.29a24.16,24.16,0,0,1,8-3.82c5.35-1.41,7,1.79,1.09,2.38A23.53,23.53,0,0,0,40.07,353.8Zm6.5-8.59c-.37-1.73,3.43-2.23,4.06-.82C51.16,345.59,46.94,347,46.57,345.21ZM79,354.81c.36-.94,2.9.13,2.66,1.31C81.39,357.7,78.69,355.76,79,354.81Zm-17.92,6.08c1.85-.74,4.74,3.86,2.72,4.92S59.6,361.5,61.12,360.89Z" style="fill:#1870C2"></path><path d="M44.86,373.42c2.79-4.66,5.55-9.35,8.48-13.93,1.36-2.13,2.79-4.22,4.27-6.27l-.66-.15-1.11-.22c-.86-.15-1.72-.27-2.59-.36s-1.63-.13-2.45-.14a12.63,12.63,0,0,0-2.61.14.07.07,0,1,1,0-.14c.87,0,1.76-.08,2.63-.09s1.7,0,2.54.06,1.59.13,2.37.25c.44.07.87.14,1.3.23.26.05.53.09.79.16,1.51-2.07,3.08-4.11,4.7-6.1A55.9,55.9,0,0,0,47.23,342c-.09,0,0-.15,0-.13a51.76,51.76,0,0,1,15.48,4.69c.89-1.09,1.79-2.18,2.69-3.26s2.09-2.4,3-3.69c.06-.08.18,0,.11.08A53,53,0,0,0,65,344h0a53,53,0,0,1,5.68,4.56q2.77,2.46,5.42,5.09c.07.06,0,.17-.1.1-1.74-1.73-3.54-3.38-5.42-4.94s-3.87-3-5.77-4.56v0c-.43.57-.86,1.14-1.3,1.7-.22.29-.43.58-.65.86,0,0,0,0,0,.06l-2.17,2.84a23.09,23.09,0,0,1,2.16,3.89c.62,1.32,1.17,2.68,1.67,4a58.61,58.61,0,0,1,2.32,8.74c0,.09-.11.13-.13,0a51,51,0,0,0-2.54-8.56c-.54-1.43-1.16-2.82-1.8-4.21s-1.28-2.47-1.82-3.74c-.62.83-1.25,1.66-1.86,2.5l-.52.74c0,.06,0,.13-.06.13h0c-1.92,2.67-3.74,5.41-5.51,8.18a2.5,2.5,0,0,1,.24.61c.11.33.22.67.32,1a19,19,0,0,1,.48,2.08c.12.66.22,1.32.28,2a16.79,16.79,0,0,0,.17,2.25c0,.11-.16.12-.14,0a7.49,7.49,0,0,0-.15-2.11c-.1-.72-.24-1.44-.4-2.14s-.33-1.28-.52-1.91c-.09-.32-.19-.63-.3-.94s-.14-.34-.2-.52q-1.24,2-2.46,3.92c-1.6,2.61-3.19,5.23-4.8,7.84C45,373.67,44.78,373.55,44.86,373.42Z" style="fill:#263238"></path><path d="M87.87,409.22c.07-2.64.49-5.3.77-7.93s.59-5.28.87-7.92c.55-5.08.85-10.29,2-15.27a22.06,22.06,0,0,1,6.21-11.43,10.18,10.18,0,0,1,6.1-2.91,10.47,10.47,0,0,1,6.47,2,22.48,22.48,0,0,1,5.44,5.73,56.69,56.69,0,0,1,4.25,6.89c0,.09-.1.15-.15.06a35.39,35.39,0,0,0-9.18-10.28,10.8,10.8,0,0,0-5.79-2.42A7.88,7.88,0,0,0,99.3,368c-3.08,2.68-4.87,6.62-5.93,10.49-1.26,4.59-1.66,9.41-2.29,14.11-.38,2.8-.73,5.6-1.1,8.39s-.6,5.63-1.19,8.38A.46.46,0,0,1,87.87,409.22Z" style="fill:#263238"></path><path d="M100.87,388.7a14.73,14.73,0,0,0,2.87,2.94c-.43-2.58-1-7.16.34-9.6,2-3.79,4.42-1.9,3.21,1.39a26.88,26.88,0,0,0-2,9.34,40.54,40.54,0,0,0,8.78,4.14,15,15,0,0,1-.29-4.52c.41-4.05,3.51-4,2.7.24a25.58,25.58,0,0,0-.42,4.95,90.42,90.42,0,0,0,13.68,3.08,39.87,39.87,0,0,0,5.66-10.07c-3.3-.83-10-1-9.83-3.37.19-3.17,6.65-.73,10.44,1.57a25.41,25.41,0,0,0,1.14-8.53,42,42,0,0,0-9.09-1.51c-6.79-.58-6.46-4.43-1.54-4.34,3.63.06,8.22,2.28,10.4,3.44-1.42-9.23-8.46-15.15-14.11-15.37-9.49-.39-6.08,11.43-6.08,11.43s-6.43-4.53-12.5-4.41S94.38,379.67,100.87,388.7Zm25.35-17.07c-.21-1.33,4-1.65,4.24.05C130.72,373.6,126.43,373,126.22,371.63ZM133,385.48c-.09-.86,1.74-1,2.15.08C135.47,386.27,133.11,386.34,133,385.48Zm-22.8.81c1.43.2,2.25,5.32-.22,5.22C108.15,391.43,109,386.12,110.24,386.29Z" style="fill:#1870C2"></path><path d="M112.22,392c.24-.63.45-1.28.65-1.93a20.28,20.28,0,0,0-.47,2C112.37,392.15,112.17,392.1,112.22,392Z" style="fill:#263238"></path><path d="M114.73,383.75c.44-1.31.94-2.6,1.45-3.89.27-.69.56-1.37.86-2.05a8.23,8.23,0,0,1,.84-1.71,13.12,13.12,0,0,1-.77-1.66c0-.05,0-.09.09-.05a19.23,19.23,0,0,1,1.85,2.87l.77,1.35c.54,0,1.08.16,1.6.25s1.14.22,1.7.35l1.69.39c.56.14,1.12.32,1.69.41.13,0,.07.23,0,.17a11.92,11.92,0,0,0-1.78-.46c-.54-.11-1.09-.21-1.64-.29s-1.11-.15-1.66-.2l-1.25-.11c.22.4.46.8.68,1.2a1.74,1.74,0,0,0,.1.19,5.27,5.27,0,0,1,1.36.16c.49.09,1,.18,1.47.29,1,.22,2,.45,3,.73,2,.57,4.08,1.22,6.11,1.89.11,0,0,.21-.07.17a59.43,59.43,0,0,0-6.14-1.71c-1-.21-1.94-.44-2.91-.64l-1.47-.31a10.84,10.84,0,0,1-1.13-.25c1,1.93,2,3.89,2.93,5.89,2,4.36,3.63,8.84,5.32,13.31,0,.11-.13.19-.17.07a121.78,121.78,0,0,0-5.66-13l-1.15-2.31c0,.15-.07.31-.1.47-.1.53-.19,1.06-.28,1.59-.18,1-.36,2.11-.52,3.18a36.57,36.57,0,0,0-.76,6.59c0,.14-.21.13-.19,0,.17-1.05.17-2.15.24-3.21s.15-2.22.28-3.33.26-2.13.44-3.19c.08-.53.18-1.06.27-1.58a3.37,3.37,0,0,1,.3-1.15c-.55-1.12-1.1-2.24-1.67-3.35s-1.06-2.08-1.6-3.12c-.23-.44-.48-.88-.72-1.32a13.47,13.47,0,0,1-.63,1.59c-.24.6-.49,1.2-.74,1.8-.54,1.32-1,2.66-1.55,4-.72,1.9-1.51,3.84-2.1,5.82C113.59,387.64,114.08,385.67,114.73,383.75Z" style="fill:#263238"></path><path d="M112.87,390c0-.15.09-.31.14-.46C113,389.73,112.92,389.89,112.87,390Z" style="fill:#263238"></path><polygon points="72 404.08 72.67 418.21 74.38 454.63 111.96 454.63 113.67 418.21 114.34 404.08 72 404.08" style="fill:#dbdbdb"></polygon><polygon points="72 404.08 72.42 413.02 113.87 414.02 114.34 404.08 72 404.08" style="fill:#a6a6a6"></polygon><rect x="69.33" y="398.37" width="47.69" height="11.43" transform="translate(186.34 808.17) rotate(180)" style="fill:#dbdbdb"></rect></g><g id="freepik--Table--inject-30"><polygon points="459.98 454.6 407.49 454.84 354.99 454.93 250 455.1 145.01 454.93 92.52 454.84 40.02 454.6 92.52 454.35 145.01 454.27 250 454.1 354.99 454.27 407.49 454.36 459.98 454.6" style="fill:#263238"></polygon></g></svg>
