<svg xmlns="http://www.w3.org/2000/svg" viewBox="0 0 500 500"><g id="freepik--background-complete--inject-22"><rect x="67.77" y="401.72" width="35.16" height="11.19" style="fill:#ebebeb"></rect><rect x="271.45" y="209.78" width="35.16" height="11.19" style="fill:#ebebeb"></rect><path d="M83.32,427c-5.86.1-20.63.35-26.29.41l-8.87,0h-.45V427l0-11.19v-.51h.5l17.58.06c4.37,0,13.2.14,17.58.2h.24v.24L83.32,427Zm0,0-.24-11.19.24.23c-4.39.07-13.2.16-17.58.2l-17.58.07.5-.5,0,11.19-.46-.46,8.71,0c5.57.07,20.68.32,26.45.42Z" style="fill:#ebebeb"></path><path d="M290,360.8c-5.86.11-20.63.36-26.29.42l-8.87,0h-.45v-.46l-.05-11.18v-.51h.5l17.58.06c4.38,0,13.2.14,17.58.2h.24v.24L290,360.8Zm0,0-.24-11.18.24.23c-4.39.06-13.2.16-17.58.2l-17.58.06.5-.49,0,11.18-.46-.45,8.71,0c5.57.07,20.68.32,26.45.41Z" style="fill:#ebebeb"></path><path d="M270.37,374.91c-5.86.11-20.63.35-26.29.42l-8.87,0h-.45v-.46l0-11.18v-.51h.5l17.58.06c4.37,0,13.2.14,17.58.2h.24v.24l-.23,11.18Zm0,0-.24-11.18.24.23c-4.39.06-13.2.16-17.58.2l-17.58.06.5-.49,0,11.18-.46-.45,8.71,0c5.57.07,20.68.32,26.45.41Z" style="fill:#ebebeb"></path><rect x="215.67" y="349.62" width="35.16" height="11.19" style="fill:#ebebeb"></rect><rect x="416.68" y="415.83" width="35.16" height="11.19" style="fill:#ebebeb"></rect><rect x="397.07" y="44.93" width="35.16" height="11.19" style="fill:#ebebeb"></rect><path d="M451.84,70.23c-5.86.1-20.63.35-26.29.42l-8.87,0h-.45v-.46L416.18,59v-.5h.5l17.58.07c4.38,0,13.2.13,17.58.2h.24V59l-.24,11.19Zm0,0L451.6,59l.24.24c-4.39.06-13.19.16-17.58.19l-17.58.07.5-.5,0,11.19-.46-.45,8.71,0c5.58.06,20.69.32,26.45.41Z" style="fill:#ebebeb"></path><path d="M102.93,56.12c-5.86.1-20.63.35-26.29.42l-8.87,0h-.45v-.46l0-11.19v-.5h.5l17.58.07c4.38,0,13.2.13,17.58.2h.24v.23l-.24,11.19Zm0,0-.24-11.19.24.24c-4.39.06-13.2.16-17.58.19l-17.58.07.5-.5,0,11.19-.46-.45,8.71,0c5.57.06,20.68.32,26.45.41Z" style="fill:#ebebeb"></path><rect x="83.77" y="343.99" width="92.34" height="121.73" style="fill:#ebebeb"></rect><rect x="79.3" y="339.25" width="101.28" height="4.74" transform="translate(259.88 683.24) rotate(180)" style="fill:#dbdbdb"></rect><rect x="47.44" y="339.25" width="31.85" height="4.74" transform="translate(126.74 683.24) rotate(180)" style="fill:#ebebeb"></rect><rect x="52.49" y="343.99" width="31.28" height="121.73" style="fill:#dbdbdb"></rect><path d="M166.17,394.59H93.7v-41h72.47ZM94,394.34h72V353.87H94Z" style="fill:#c7c7c7"></path><rect x="125.94" y="365.6" width="14.11" height="8.11" transform="translate(265.99 739.3) rotate(180)" style="fill:#c7c7c7"></rect><path d="M136,373.22H121.65v-7.14H136ZM121.9,373h13.85v-6.64H121.9Z" style="fill:#c7c7c7"></path><path d="M166.17,446H93.7v-41h72.47ZM94,445.78h72V405.31H94Z" style="fill:#c7c7c7"></path><rect x="125.94" y="417.04" width="14.11" height="8.11" transform="translate(265.99 842.19) rotate(180)" style="fill:#c7c7c7"></rect><path d="M136,424.66H121.65v-7.13H136Zm-14.1-.25h13.85v-6.63H121.9Z" style="fill:#c7c7c7"></path></g><g id="freepik--Floor--inject-22"><path d="M47.44,465.72c129.77-.61,275.35-.61,405.12,0-129.77.62-275.35.62-405.12,0Z" style="fill:#263238"></path></g><g id="freepik--Plant--inject-22"><path d="M403.16,297.64s-23.6-3.3-18.08-31.78C385.08,265.86,411.44,271.78,403.16,297.64Z" style="fill:#1870C2"></path><path d="M403.16,297.64s-23.6-3.3-18.08-31.78C385.08,265.86,411.44,271.78,403.16,297.64Z" style="opacity:0.1"></path><path d="M402,291.7c-.47-1.44-1-2.86-1.61-4.25,0-.18-.05-.36-.06-.54,0-.39-.07-.78-.1-1.17-.07-.85-.12-1.7-.17-2.55-.1-1.7-.21-3.41-.23-5.11,0-.09-.15-.09-.15,0,0,1.71,0,3.41,0,5.12,0,.85.08,1.7.13,2.55,0,.19,0,.38.05.56a51,51,0,0,0-4.73-8.08c-.82-1.14-1.67-2.23-2.58-3.28s-1.94-2.1-2.89-3.16c-.06-.07-.16,0-.1.1a42,42,0,0,1,4.55,6.05c.71,1.08,1.39,2.2,2,3.33l-.22-.09-.84-.34-1.93-.73-3.8-1.41c-.07,0-.12.1-.05.13,1.26.5,2.5,1,3.74,1.57l1.82.78c.31.14.62.26.93.38a2.29,2.29,0,0,0,.62.22c.48.86.95,1.72,1.38,2.59a61.65,61.65,0,0,1,2.89,6.8c.05.16.11.32.17.49a13.22,13.22,0,0,0-1.94-.93l-2.44-1.12c-1.65-.76-3.3-1.53-4.88-2.43-.08,0-.15.09-.07.13,1.62.89,3.21,1.83,4.83,2.71.81.44,1.63.87,2.46,1.27a7.77,7.77,0,0,0,2.22.89,28.39,28.39,0,0,1,1.54,6.69c.27,3.22.24,6.47.31,9.7,0,.05.08.05.09,0,.23-2.93.36-5.89.38-8.83A25.92,25.92,0,0,0,402,291.7Z" style="fill:#263238"></path><path d="M398.33,275a28.1,28.1,0,0,0-.23,5,0,0,0,1,0,.07,0c.09-1.67.11-3.33.3-5C398.48,274.89,398.34,274.86,398.33,275Z" style="fill:#263238"></path><path d="M391.59,276.38a17.89,17.89,0,0,1-3-1.5c-.07-.05-.15.08-.07.13a11.85,11.85,0,0,0,3.07,1.46C391.61,276.49,391.64,276.4,391.59,276.38Z" style="fill:#263238"></path><path d="M403.91,342.86c0-2.61-.07-5.21-.1-7.82-.05-8.66-.12-17.32-.27-26q-.19-10.31-.48-20.61a.15.15,0,0,0-.06-.09l0-5.63c0-.05-.06-.07-.12-.07s-.11,0-.11.07l0,5.64s-.06.05-.06.08c-.34,12.24-.65,24.47-.73,36.71,0,2.48,0,5,0,7.46q-.12,12-.09,23.93c0,1.27,0,2.54,0,3.81,0,7.3.07,14.6.08,21.9,0,.39.43.58.9.6s1.09-.19,1.09-.64c0-8.05.06-16.09.06-24.14C403.93,353,404,347.93,403.91,342.86Z" style="fill:#263238"></path><path d="M394.06,334.94s-11.35-8.41-22.12-2.73-12.46,27.58-12.46,27.58,15.82,2.26,25.78-7.22C394.85,343.44,394.06,334.94,394.06,334.94Z" style="fill:#1870C2"></path><path d="M394.06,334.94s-11.35-8.41-22.12-2.73-12.46,27.58-12.46,27.58,15.82,2.26,25.78-7.22C394.85,343.44,394.06,334.94,394.06,334.94Z" style="opacity:0.1"></path><path d="M397.15,335.46a13.46,13.46,0,0,0-6.57-.86,10.73,10.73,0,0,0-1.39-.14c-.54,0-1.07-.07-1.6-.12l-3.31-.23c-2.24-.17-4.49-.3-6.72-.53-.08,0-.1.13,0,.14,2.21.29,4.41.6,6.63.82,1.14.12,2.28.24,3.42.32l.83.08-1,.25a26.91,26.91,0,0,0-5.14,2.09c-.89.16-1.78.41-2.66.62-1.4.33-2.8.69-4.2,1.05-2.75.73-5.48,1.54-8.21,2.33a.07.07,0,0,0,0,.14c2.73-.67,5.48-1.28,8.22-1.93,1.33-.32,2.66-.63,4-1l1-.24a33.27,33.27,0,0,0-8.07,7,44.3,44.3,0,0,0-5.6,8.84c0,.08.07.16.12.08a42.86,42.86,0,0,1,6.78-8.9c-.05.15-.1.3-.14.45-.22.67-.42,1.34-.64,2-.42,1.34-.84,2.68-1.24,4,0,.09.11.12.14,0,.48-1.29.93-2.59,1.39-3.9.22-.64.45-1.27.67-1.91.12-.33.23-.67.34-1,0-.1.08-.2.11-.3a39.51,39.51,0,0,1,4-3.43,30.23,30.23,0,0,1,6-3.46c0,.2-.07.4-.11.58-.12.52-.23,1-.34,1.56-.22,1.07-.43,2.15-.64,3.22-.43,2.2-.69,4.42-1.1,6.62,0,.09.12.13.14,0,.51-2.21,1.16-4.39,1.65-6.6.25-1.11.5-2.21.73-3.32.11-.52.21-1,.32-1.56.05-.29.12-.58.16-.87.2-.08.4-.18.61-.25,3-1.11,6.27-1.91,9.44-1.3a9.28,9.28,0,0,1,6.83,5.48c.11.24.5.09.44-.16A8.79,8.79,0,0,0,397.15,335.46Z" style="fill:#263238"></path><path d="M379.78,344.81l-1,4.31a32,32,0,0,0-.79,4.2c0,.05.07.05.09,0a32,32,0,0,0,1-4.23l.84-4.26A.07.07,0,0,0,379.78,344.81Z" style="fill:#263238"></path><path d="M368.8,348.46c-1.44.74-2.84,1.57-4.35,2.17a.07.07,0,1,0,.06.13,46.64,46.64,0,0,0,4.33-2.24S368.84,348.45,368.8,348.46Z" style="fill:#263238"></path><path d="M396.61,319.5s-13.87.88-20.32-8.26-5-22.21-5-22.21,14.56,1.77,20.35,8.34S396.61,319.5,396.61,319.5Z" style="fill:#1870C2"></path><path d="M403.12,333.18c-.48-1.48-1.08-2.95-1.64-4.4s-1.11-2.79-1.72-4.16a87.09,87.09,0,0,0-4.16-8.17c-1-1.69-2-3.32-3.11-4.93,0-.25-.07-.5-.11-.74-.06-.43-.12-.86-.19-1.29-.14-.88-.29-1.75-.44-2.63-.32-1.92-.71-3.82-1-5.74,0-.09-.15-.08-.14,0,.28,1.89.47,3.79.74,5.69.13.93.25,1.86.39,2.79,0,.33.1.67.16,1a99.84,99.84,0,0,0-6.86-8.9c-.34-.39-.68-.76-1-1.14a2,2,0,0,0-.13-.31l-.3-.8-.6-1.65c-.39-1.09-.74-2.18-1-3.3,0-.09-.16,0-.14,0,.28,1.14.58,2.28.91,3.4.16.54.34,1.08.53,1.61l.1.27c-1.77-1.93-3.62-3.79-5.49-5.63-.07-.07-.16,0-.1.1a99.68,99.68,0,0,1,9.83,12,7.77,7.77,0,0,0-1-.26c-1.07-.21-2.14-.36-3.22-.5-2.26-.29-4.52-.57-6.77-.93-.09,0-.12.13,0,.14,2.15.43,4.28.91,6.41,1.4,1,.23,2,.43,3,.63a20,20,0,0,1,2.44.69l.68,1c1,1.48,2,3,3,4.52l-1.42-.28c-1.07-.21-2.14-.4-3.22-.58-2.12-.34-4.23-.71-6.32-1.19-.09,0-.13.12,0,.14,2.12.5,4.22,1.08,6.33,1.64,1,.27,2,.52,3.06.75l1.55.33a5.07,5.07,0,0,0,.62.11q3,4.92,5.69,10.08c.77,1.5,1.52,3,2.24,4.56s1.37,3.19,2.06,4.78C402.72,333.66,403.23,333.53,403.12,333.18Z" style="fill:#263238"></path><path d="M388.92,301.31c-.26-1.33-.54-2.64-.83-4,0-.09-.16-.05-.14,0,.26,1.3.51,2.6.75,3.91a39.17,39.17,0,0,0,.78,3.88s0,0,0,0A26.63,26.63,0,0,0,388.92,301.31Z" style="fill:#263238"></path><path d="M380.83,300.92c-.64-.32-1.32-.58-2-.84l-1-.41-.54-.21a2.77,2.77,0,0,1-.58-.26c-.11-.08-.17.1-.07.12a3.32,3.32,0,0,1,.59.24l.53.24,1,.45a19,19,0,0,0,2,.81C380.86,301.09,380.91,301,380.83,300.92Z" style="fill:#263238"></path><path d="M410.81,308.59s8.39-15.68,21.16-18.1,20.59,10.71,20.59,10.71-9.32,11.89-21,14S410.81,308.59,410.81,308.59Z" style="fill:#1870C2"></path><path d="M440.53,297.51a34.7,34.7,0,0,0-10,.12l.57-.3,2.84-1.46c2-1,3.94-2.11,6-2.93a.07.07,0,1,0-.06-.13c-2,.93-4.07,1.71-6.07,2.63-1,.46-2,.94-3,1.46-.63.33-1.33.65-1.95,1.05a35.19,35.19,0,0,0-8.12,2.69c.54-.58,1.07-1.15,1.6-1.74,1.19-1.3,2.36-2.67,3.67-3.85.07-.07,0-.16-.1-.1-1.34,1.21-2.75,2.33-4.05,3.6-.63.61-1.23,1.24-1.81,1.9-.3.32-.59.66-.87,1a33.68,33.68,0,0,0-17.12,23.11c0,.09.11.14.14.05a38.55,38.55,0,0,1,9.39-15.89,36.87,36.87,0,0,1,17.1-9.89,37.6,37.6,0,0,1,11.81-1.08A.13.13,0,0,0,440.53,297.51Z" style="fill:#263238"></path><path d="M452.56,301.2s-9.32,11.89-21,14c-8.94,1.58-16.29-3.08-19.28-5.37l-.64-1.06s6-5.1,17.48-8S452.56,301.2,452.56,301.2Z" style="opacity:0.1"></path><path d="M433.11,291.92a31.45,31.45,0,0,0-2.83,1.87,18.93,18.93,0,0,0-2.47,2.26.07.07,0,0,0,.11.1c.85-.73,1.7-1.47,2.58-2.17a28.09,28.09,0,0,1,2.69-1.93C433.27,292,433.19,291.87,433.11,291.92Z" style="fill:#263238"></path><path d="M440.12,294.58c-.47.19-1,.36-1.43.56l-1.42.59c-.1,0-.06.21.05.17l1.42-.58c.48-.19.94-.41,1.42-.61C440.25,294.68,440.2,294.54,440.12,294.58Z" style="fill:#263238"></path><path d="M409.13,328.32s2.24,15.56,13.94,21,25.95,0,25.95,0S443.42,315.67,409.13,328.32Z" style="fill:#1870C2"></path><path d="M409.13,328.32s2.24,15.56,13.94,21,25.95,0,25.95,0S443.42,315.67,409.13,328.32Z" style="opacity:0.1"></path><path d="M441,339.2c-1.07-.12-2.15-.31-3.21-.5l-1.58-.3-.82-.16-.94-.88a47.25,47.25,0,0,0-7.16-5.18A40.25,40.25,0,0,0,423,330h.22l3.85.17c2.56.12,5.13.18,7.7.34.09,0,.08-.14,0-.14-2.57-.18-5.14-.46-7.71-.68l-3.74-.33-1.92-.17-.5-.05c-.66-.25-1.34-.49-2-.7a18.33,18.33,0,0,0-9.9-.55c-2.94.76-5.88,2.69-6.64,5.79,0,.11.14.18.18.07,1.1-2.59,4-3.9,6.58-4.43a15.41,15.41,0,0,1,5.29-.11,12.07,12.07,0,0,0,.59,2.35c.33,1.1.64,2.19,1,3.29.66,2.18,1.39,4.34,2,6.53a.07.07,0,1,0,.13,0c-.54-2.18-1-4.38-1.52-6.57-.26-1.08-.53-2.15-.8-3.22a17.26,17.26,0,0,0-.59-2.21,25.85,25.85,0,0,1,3,.72,43.21,43.21,0,0,1,5.3,1.94c.17,1.11.42,2.21.67,3.3.32,1.37.68,2.73,1.11,4.07a.07.07,0,1,0,.13,0,2.21,2.21,0,0,0-.05-.25h0c-.26-1.28-.54-2.54-.81-3.81-.22-1-.42-2.06-.64-3.08,1.45.65,2.88,1.37,4.26,2.16,0,.32.11.64.15.93.09.53.19,1.06.28,1.59.22,1.2.46,2.4.75,3.59a55.18,55.18,0,0,0,2,6.76.07.07,0,0,0,0,.09l.07.08c.05.06.13,0,.12-.08-.54-2.3-1.16-4.59-1.67-6.9-.25-1.15-.51-2.31-.74-3.47l-.33-1.74c0-.16-.05-.34-.08-.52a47.39,47.39,0,0,1,4.55,3,48.33,48.33,0,0,1,7,6.36c.09.1.25,0,.18-.14-.9-1.17-1.78-2.32-2.79-3.4-.59-.63-1.2-1.24-1.82-1.83l.19,0,1.65.25c1.08.14,2.17.25,3.25.37C441,339.35,441.06,339.21,441,339.2Z" style="fill:#263238"></path><path d="M432.75,344.47h0c0-.13-.05-.27-.07-.4s-.12-.34-.14-.51h0c-.24-1-.44-2.09-.63-3.14,0-.07-.13-.05-.13,0a12.85,12.85,0,0,0,.89,4.06s.09,0,.09,0Z" style="fill:#263238"></path><path d="M423,344.23c0-.05,0-.07-.07-.07-.33-1.38-.65-2.76-.93-4.14-.15-.73-.3-1.46-.44-2.19-.08-.39-.15-.79-.22-1.18a3.4,3.4,0,0,0-.25-1,.07.07,0,0,0-.13,0,6.75,6.75,0,0,0,.29,2.08c.14.76.29,1.52.46,2.28.34,1.53.72,3.06,1.15,4.57,0,.08.17.06.16,0S423,344.34,423,344.23Z" style="fill:#263238"></path><path d="M439.9,334.72c-2.14-.29-4.27-.6-6.41-.86-.09,0-.13.13,0,.14,2.14.32,4.28.58,6.41.86C440,334.87,440,334.73,439.9,334.72Z" style="fill:#263238"></path><path d="M403.14,291.85s-7.16-31.4,26.58-44.1C429.72,247.75,439.06,289.07,403.14,291.85Z" style="fill:#1870C2"></path><path d="M410.42,274l.36-.22,1.91-1.06,3.91-2.19c2.58-1.44,5.12-2.94,7.71-4.35.08,0,0-.17-.07-.12-2.6,1.41-5.24,2.73-7.86,4.11l-3.86,2.05-1.58.83a72.07,72.07,0,0,1,3.65-6.24c1.76-2.69,3.69-5.25,5.7-7.76a.12.12,0,0,0-.17-.16,53.54,53.54,0,0,0-7.79,9.57c0-.12,0-.23,0-.33,0-.78.05-1.56.07-2.35,0-1.53-.06-3.06,0-4.59a.07.07,0,1,0-.14,0c-.07,1.51-.25,3-.33,4.52-.05.75-.08,1.5-.1,2.26,0,.4-.05.87,0,1.31-.69,1.11-1.36,2.23-2,3.37a57.27,57.27,0,0,0-3,6.32c0-.78-.09-1.56-.13-2.34-.1-1.72-.31-3.43-.39-5.16,0-.09-.14-.08-.14,0,0,1.72,0,3.44,0,5.16,0,.86.05,1.72.11,2.58l.06.95a56.77,56.77,0,0,0-2.55,8.63,95,95,0,0,0-1.26,9.48,0,0,0,1,0,0,0,51.84,51.84,0,0,1,1.79-8.45c.42-1.48.86-3,1.33-4.42,1.41-.66,2.75-1.49,4.11-2.24s2.82-1.54,4.23-2.31c2.81-1.55,5.62-3.12,8.53-4.48.08,0,0-.16-.08-.12-2.94,1.33-5.9,2.59-8.79,4-1.44.73-2.85,1.5-4.25,2.29-1.18.66-2.38,1.32-3.5,2.08.33-1,.67-1.95,1-2.91C408,279.16,409.13,276.57,410.42,274Z" style="fill:#263238"></path><path d="M407.58,266.86a.08.08,0,0,0-.15,0c.13,1.79.19,3.58.38,5.36,0,.1.16.1.15,0C407.9,270.43,407.71,268.65,407.58,266.86Z" style="fill:#263238"></path><path d="M423.75,272.86c-2.11.85-4.24,1.66-6.34,2.54-.06,0,0,.12,0,.09,2.13-.8,4.23-1.67,6.35-2.49C423.88,273,423.84,272.82,423.75,272.86Z" style="fill:#263238"></path><path d="M427,258.38a54,54,0,0,0-6,3.22.09.09,0,1,0,.09.15c2-1.14,3.95-2.24,6-3.25C427.12,258.46,427,258.34,427,258.38Z" style="fill:#263238"></path><rect x="377.8" y="359.74" width="48.65" height="51.28" style="fill:#455a64"></rect><rect x="374.45" y="377.89" width="2.49" height="87.84" style="fill:#263238"></rect><rect x="427.04" y="377.89" width="2.49" height="87.84" style="fill:#263238"></rect><rect x="402.07" y="377.89" width="2.49" height="87.84" style="fill:#263238"></rect><rect x="375.69" y="407.74" width="52.59" height="7.1" style="fill:#263238"></rect></g><g id="freepik--magnifying-glass--inject-22"><rect x="200.99" y="133.24" width="7.98" height="40.51" transform="translate(457.03 108.23) rotate(132.99)" style="fill:#c7c7c7"></rect><polygon points="235.31 190.02 243.55 181.19 243.55 181.19 219.75 159 219.75 159 211.51 167.83 211.51 167.83 235.31 190.02" style="fill:#263238"></polygon><path d="M129.2,111.74a35.09,35.09,0,0,1,12.93-23.69q.74-.6,1.5-1.14a35.26,35.26,0,0,1,53.7,16.39,35.48,35.48,0,0,1-.69,26.19,35.26,35.26,0,0,1-67.44-17.75Z" style="fill:#fff"></path><path d="M129.2,111.74c2.56-25,30-39.29,52-27.31,27.66,15.29,23.29,56-7,65.09-24.09,7-47.84-12.81-45-37.78Zm0,0c-2.69,24.86,21,44.55,44.94,37.48,29.82-9,34.15-49.36,7-64.52-21.88-12-49.24,2.18-51.89,27Z" style="fill:#263238"></path><path d="M184.88,86.91H143.63a35.34,35.34,0,0,1,41.25,0Z" style="fill:#1870C2"></path><path d="M197.33,103.3h-65v26.19h64.27A35.48,35.48,0,0,0,197.33,103.3Z" style="fill:#ebebeb"></path><path d="M153.18,116.7a5.17,5.17,0,0,0-1.91-.68h0a4.29,4.29,0,0,1-1.61-.57,1.09,1.09,0,0,1-.56-.92,1.3,1.3,0,0,1,.59-1,2.65,2.65,0,0,1,1.54-.45,3.79,3.79,0,0,1,2.06.79.22.22,0,0,0,.32-.06.23.23,0,0,0-.06-.33,4.12,4.12,0,0,0-2.32-.87,3.11,3.11,0,0,0-1.82.54,1.78,1.78,0,0,0-.79,1.41,1.57,1.57,0,0,0,.78,1.31,4.57,4.57,0,0,0,1.77.64h0a5,5,0,0,1,1.75.61,1.21,1.21,0,0,1,.61,1,1.39,1.39,0,0,1-.65,1.12,2.83,2.83,0,0,1-1.65.5,4.16,4.16,0,0,1-2.48-1,.22.22,0,0,0-.33,0,.27.27,0,0,0,0,.34,4.76,4.76,0,0,0,2.78,1.08,3.32,3.32,0,0,0,1.93-.59,1.89,1.89,0,0,0,.85-1.51A1.69,1.69,0,0,0,153.18,116.7Z" style="fill:#a6a6a6"></path><path d="M158,114.94a2.64,2.64,0,0,0,0,5.27,2.51,2.51,0,0,0,2.13-1.19.29.29,0,0,0-.09-.37.25.25,0,0,0-.34.09,2,2,0,0,1-1.7,1,2.06,2.06,0,0,1-2-2h4.32a.24.24,0,0,0,.26-.23v0A2.59,2.59,0,0,0,158,114.94Zm-2,2.23a2.05,2.05,0,0,1,2-1.71,2,2,0,0,1,2,1.71Z" style="fill:#a6a6a6"></path><path d="M166.52,114.94a.26.26,0,0,0-.25.26V116a2.45,2.45,0,0,0-2-1,2.64,2.64,0,0,0,0,5.27,2.46,2.46,0,0,0,2-1V120a.26.26,0,1,0,.51,0V115.2A.26.26,0,0,0,166.52,114.94Zm-2.23,4.75a2.12,2.12,0,1,1,2-2.11A2,2,0,0,1,164.29,119.69Z" style="fill:#a6a6a6"></path><path d="M171.72,115a2.56,2.56,0,0,0-2.11,1.29l-.08.13v-1.16a.25.25,0,0,0-.24-.26.26.26,0,0,0-.27.26V120a.26.26,0,0,0,.27.26.25.25,0,0,0,.24-.26v-2.31a.15.15,0,0,1,0-.09,4.69,4.69,0,0,1,.63-1.22,1.92,1.92,0,0,1,1.53-.86.26.26,0,0,0,.26-.26A.26.26,0,0,0,171.72,115Z" style="fill:#a6a6a6"></path><path d="M177.16,119.23a2.23,2.23,0,0,1-1.36.46,2.12,2.12,0,1,1,0-4.24,2.18,2.18,0,0,1,1.36.47.26.26,0,0,0,.35,0,.24.24,0,0,0,0-.36,2.73,2.73,0,0,0-1.68-.58,2.64,2.64,0,1,0,0,5.27,2.74,2.74,0,0,0,1.66-.56.26.26,0,0,0,0-.38A.27.27,0,0,0,177.16,119.23Z" style="fill:#a6a6a6"></path><path d="M181.8,114.94a2.16,2.16,0,0,0-1.67.78v-2.78a.26.26,0,0,0-.26-.26.26.26,0,0,0-.26.26v7a.28.28,0,0,0,0,.09.3.3,0,0,0,0,.08.29.29,0,0,0,.21.09h.07a.24.24,0,0,0,.16-.13s0,0,0,0a.2.2,0,0,0,0,0v-3a1.68,1.68,0,0,1,3.35,0V120a.26.26,0,0,0,.26.26A.26.26,0,0,0,184,120V117A2.09,2.09,0,0,0,181.8,114.94Z" style="fill:#a6a6a6"></path><g style="opacity:0.1"><path d="M191.72,93.4A35.31,35.31,0,1,1,168,80.47,35.3,35.3,0,0,1,191.72,93.4Z" style="fill:#fff"></path></g><path d="M159.84,156.5a41.22,41.22,0,1,1,45.4-36.57A41.26,41.26,0,0,1,159.84,156.5Zm.51-4.69A36.5,36.5,0,1,0,128,111.61,36.54,36.54,0,0,0,160.35,151.81Z" style="fill:#37474f"></path><path d="M200,103.35a37.9,37.9,0,0,0-6.35-11.48A37.48,37.48,0,1,0,200,103.35Zm-.65,16a35.32,35.32,0,1,1-7.61-25.89A35.31,35.31,0,0,1,199.32,119.3Zm.65-16a37.9,37.9,0,0,0-6.35-11.48A37.48,37.48,0,1,0,200,103.35Zm-.65,16a35.32,35.32,0,1,1-7.61-25.89A35.31,35.31,0,0,1,199.32,119.3Zm5.12-17.47a42.44,42.44,0,1,0-44.73,55.89,42.45,42.45,0,0,0,44.73-55.89Zm-.42,18a40,40,0,1,1-1.91-17.17A39.73,39.73,0,0,1,204,119.8Zm-10.4-27.93A37.48,37.48,0,1,0,200,103.35,37.9,37.9,0,0,0,193.62,91.87Zm5.7,27.43a35.32,35.32,0,1,1-7.61-25.89A35.31,35.31,0,0,1,199.32,119.3Z" style="fill:#37474f"></path><path d="M140.6,132.58a27.17,27.17,0,0,1-4.74-10.16,28.49,28.49,0,0,1-.81-5.69,29.85,29.85,0,0,1,.36-5.81,28,28,0,0,1,4.29-10.82,31,31,0,0,1,8-8.23,55.78,55.78,0,0,0-6.39,9.17,33.94,33.94,0,0,0-2.18,5,28.58,28.58,0,0,0-1.34,5.22A34.9,34.9,0,0,0,137.7,122,45.87,45.87,0,0,0,140.6,132.58Z" style="fill:#fff"></path><path d="M191,107.18a27.22,27.22,0,0,1,1.79,11.07A29.17,29.17,0,0,1,192,124a30.62,30.62,0,0,1-1.93,5.49,28.18,28.18,0,0,1-7.08,9.23,31.4,31.4,0,0,1-10,5.73,55.56,55.56,0,0,0,8.65-7.08,34.53,34.53,0,0,0,3.47-4.2,28.57,28.57,0,0,0,2.71-4.66,34.55,34.55,0,0,0,3-10.32A45.62,45.62,0,0,0,191,107.18Z" style="fill:#fff"></path></g></svg>
